#N canvas 891 42 488 614 12;
#X obj 33 25 inlet;
#X obj 33 60 route bang;
#X obj 139 398 sel 1;
#X obj 33 440 until;
#X obj 33 595 outlet;
#X floatatom 139 352 5 0 0 0 - - -;
#X floatatom 33 522 5 0 0 0 - - -;
#X obj 139 327 f \$1;
#X obj 139 375 > \$2;
#X obj 33 478 f \$1;
#X obj 102 477 + \$3;
#X obj 334 398 sel 1;
#X obj 228 440 until;
#X floatatom 334 352 5 0 0 0 - - -;
#X floatatom 228 522 5 0 0 0 - - -;
#X obj 334 327 f \$1;
#X obj 228 478 f \$1;
#X obj 297 477 + \$3;
#X obj 334 374 < \$2;
#X obj 33 182 > 0;
#X obj 228 182 < 0;
#X obj 33 129 f \$3;
#X obj 33 207 sel 1;
#X obj 228 207 sel 1;
#X obj 33 252 f \$1;
#X obj 33 303 sel 1;
#X obj 228 252 f \$1;
#X obj 228 303 sel 1;
#X text 86 280 <- Terminates? ->;
#X text 86 183 <- Up or down? ->;
#X obj 33 96 t b b;
#X obj 33 278 <= \$2;
#X obj 228 278 >= \$2;
#X connect 0 0 1 0;
#X connect 1 0 30 0;
#X connect 2 0 3 1;
#X connect 3 0 9 0;
#X connect 5 0 8 0;
#X connect 6 0 4 0;
#X connect 7 0 5 0;
#X connect 7 0 9 1;
#X connect 8 0 2 0;
#X connect 9 0 6 0;
#X connect 9 0 10 0;
#X connect 10 0 5 0;
#X connect 10 0 9 1;
#X connect 11 0 12 1;
#X connect 12 0 16 0;
#X connect 13 0 18 0;
#X connect 14 0 4 0;
#X connect 15 0 13 0;
#X connect 15 0 16 1;
#X connect 16 0 14 0;
#X connect 16 0 17 0;
#X connect 17 0 13 0;
#X connect 17 0 16 1;
#X connect 18 0 11 0;
#X connect 19 0 22 0;
#X connect 20 0 23 0;
#X connect 21 0 19 0;
#X connect 21 0 20 0;
#X connect 22 0 24 0;
#X connect 23 0 26 0;
#X connect 24 0 31 0;
#X connect 25 0 3 0;
#X connect 26 0 32 0;
#X connect 27 0 12 0;
#X connect 30 0 21 0;
#X connect 30 1 7 0;
#X connect 30 1 15 0;
#X connect 31 0 25 0;
#X connect 32 0 27 0;
