#N canvas 538 449 329 257 12;
#X obj 39 21 inlet;
#X obj 39 205 outlet;
#X msg 39 85 \; CC-OUT-\$1-set bang;
#X floatatom 39 177 5 0 0 0 - - -;
#X floatatom 39 53 5 0 0 0 - - -;
#X obj 17 178 bng 15 250 50 0 empty empty empty 17 7 0 10 -262144 -1
-1;
#X obj 39 148 receive CC-xlate-out;
#X connect 0 0 4 0;
#X connect 3 0 1 0;
#X connect 4 0 2 0;
#X connect 6 0 3 0;
#X connect 6 0 5 0;
